<!DOCTYPE svg PUBLIC "-//W3C//DTD SVG 1.1//EN" "http://www.w3.org/Graphics/SVG/1.1/DTD/svg11.dtd">
<!-- Uploaded to: SVG Repo, www.svgrepo.com, Transformed by: SVG Repo Mixer Tools -->
<svg width="800px" height="800px" viewBox="-2.5 -2.5 30.00 30.00" xmlns="http://www.w3.org/2000/svg" fill="#fcfcfc">
<g id="SVGRepo_bgCarrier" stroke-width="0">
<path transform="translate(-2.5, -2.5), scale(0.9375)" d="M16,26.651073280133698C17.934900178112724,26.366967383459922,20.208534393050062,27.147526619927206,21.718483188238583,25.904703424257686C23.244310896425446,24.648810459958103,22.297691016330802,21.87260257246397,23.605519725397418,20.391048860785208C25.432699377535616,18.32115639186911,29.31029197579059,18.509408022781376,30.461774363525603,16C31.54795519104682,13.632902672411252,30.47284958618391,10.64932863468808,29.087702519976933,8.443811427017579C27.717921297564025,6.262760670401255,25.119057421517034,5.354200711109527,22.926825490829195,4.002386314720615C20.66966272323168,2.6105330707648124,18.569582809390194,-0.28176577227114363,16.000000000000004,0.3734314482855172C13.221235171093264,1.0819663068730758,13.294739883393428,5.581098159897687,10.850916148604533,7.081525156950612C8.515667712360994,8.51529050945387,4.71737473397637,6.391197475921782,2.882949107500819,8.426867136241567C1.1636865317079161,10.334739885702147,2.569943933786987,13.44339594554971,2.814111788806162,15.999999999999998C3.0376242584590183,18.340328075085115,3.1274964043700706,20.71804724503471,4.253895974198743,22.78161632122569C5.394288903347607,24.87082129460506,6.961480066856874,26.994845124383097,9.22215722569901,27.739568050802895C11.433167049995276,28.467929329746493,13.69680514453097,26.989256741497424,16,26.651073280133698" fill="#ffe224" strokewidth="0"/>
</g>
<g id="SVGRepo_tracerCarrier" stroke-linecap="round" stroke-linejoin="round"/>
<g id="SVGRepo_iconCarrier"> <defs> <style>.cls-1{fill:#000000;}</style> </defs> <g data-name="calendar plus" id="calendar_plus"> <path class="cls-1" d="M22.5,3H21V2a1,1,0,0,0-1-1H19a1,1,0,0,0-1,1V3H14V2a1,1,0,0,0-1-1H12a1,1,0,0,0-1,1V3H7V2A1,1,0,0,0,6,1H5A1,1,0,0,0,4,2V3H2.5A1.5,1.5,0,0,0,1,4.5v18A1.5,1.5,0,0,0,2.5,24h16A5.51,5.51,0,0,0,24,18.5s0-.08,0-.13,0,0,0,0V4.5A1.5,1.5,0,0,0,22.5,3ZM19,2l1,0,0,3L19,5ZM12,2l1,0V3.44s0,0,0,.06,0,0,0,.07L13,5,12,5ZM5,2,6,2,6,5,5,5ZM2.5,4H4V5A1,1,0,0,0,5,6H6A1,1,0,0,0,7,5V4h4V5a1,1,0,0,0,1,1H13a1,1,0,0,0,1-1V4h4V5a1,1,0,0,0,1,1H20a1,1,0,0,0,1-1V4h1.5a.5.5,0,0,1,.5.5V8H2V4.5A.5.5,0,0,1,2.5,4Zm16,19A4.5,4.5,0,1,1,23,18.5,4.51,4.51,0,0,1,18.5,23Zm0-10a5.49,5.49,0,0,0-3.15,10H2.5a.5.5,0,0,1-.5-.5V9H23v6.35A5.49,5.49,0,0,0,18.5,13Z"/> <path class="cls-1" d="M20.5,18H19V16.5a.5.5,0,0,0-1,0V18H16.5a.5.5,0,0,0,0,1H18v1.5a.5.5,0,0,0,1,0V19h1.5a.5.5,0,0,0,0-1Z"/> </g> </g>
</svg>