<?xml version="1.0" encoding="iso-8859-1"?>
<!-- Uploaded to: SVG Repo, www.svgrepo.com, Generator: SVG Repo Mixer Tools -->
<svg height="800px" width="800px" version="1.1" id="Layer_1" xmlns="http://www.w3.org/2000/svg" xmlns:xlink="http://www.w3.org/1999/xlink" 
	 viewBox="0 0 512 512" xml:space="preserve">
<path style="fill:#4FC0E8;" d="M0,256.006C0,397.402,114.606,512.004,255.996,512C397.394,512.004,512,397.402,512,256.006
	C512.009,114.61,397.394,0,255.996,0C114.606,0,0,114.614,0,256.006z"/>
<path style="fill:#3DAED9;" d="M512,256.005c0.002-35.04-7.054-68.427-19.794-98.842c-0.179-0.24-0.329-0.5-0.572-0.7
	c-0.16-0.129-0.356-0.163-0.524-0.276c-0.345-0.47-66.748-66.801-66.915-66.915c-0.345-0.468-0.638-0.972-1.11-1.357
	c-3.027-2.465-7.474-2.03-9.949,1.002l-96.48,117.941c-0.302-0.329-35.189-35.297-36.305-35.851
	c-18.686-9.28-38.774-13.988-59.705-13.988c-74.068,0-134.325,60.26-134.325,134.329c0,37.451,15.438,71.333,40.243,95.718
	c0.54,0.549,124.558,124.557,124.815,124.815c1.541,0.029,3.069,0.117,4.617,0.117C397.394,512.004,512,397.401,512,256.005z"/>
<g>
	<path style="fill:#F4F6F9;" d="M423.086,87.917c-3.027-2.465-7.474-2.03-9.949,1.002L209.89,337.374l-61.997-62.318
		c-2.755-2.769-7.235-2.789-9.997-0.028c-2.769,2.755-2.783,7.229-0.028,9.997l67.523,67.869c1.329,1.34,3.135,2.085,5.012,2.085
		c0.114,0,0.228,0,0.346-0.006c1.996-0.097,3.859-1.036,5.126-2.589L424.08,97.867C426.553,94.849,426.107,90.388,423.086,87.917z"
		/>
	<path style="fill:#F4F6F9;" d="M343.124,256.111c-3.808,0.87-6.187,4.66-5.313,8.471c2.01,8.768,3.027,17.772,3.027,26.768
		c0,66.274-53.919,120.189-120.192,120.189c-66.27,0-120.186-53.915-120.186-120.189s53.915-120.189,120.186-120.189
		c18.727,0,36.7,4.211,53.414,12.511c3.51,1.747,7.74,0.318,9.476-3.189c1.737-3.493,0.31-7.74-3.186-9.473
		c-18.686-9.279-38.774-13.988-59.705-13.988c-74.068,0-134.325,60.26-134.325,134.329s60.257,134.329,134.325,134.329
		c74.073,0,134.332-60.26,134.332-134.329c0-10.052-1.139-20.126-3.387-29.93C350.723,257.616,346.915,255.248,343.124,256.111z"/>
</g>
</svg>