<!DOCTYPE svg PUBLIC "-//W3C//DTD SVG 1.1//EN" "http://www.w3.org/Graphics/SVG/1.1/DTD/svg11.dtd">
<!-- Uploaded to: SVG Repo, www.svgrepo.com, Transformed by: SVG Repo Mixer Tools -->
<svg width="800px" height="800px" viewBox="-2.5 -2.5 30.00 30.00" xmlns="http://www.w3.org/2000/svg" fill="#000000">
<g id="SVGRepo_bgCarrier" stroke-width="0">
<path transform="translate(-2.5, -2.5), scale(0.9375)" d="M16,25.14665681241374C18.158635714629135,26.13780131560761,19.7223547694903,28.593387810780065,22.096726407928198,28.65998283511051C24.325989311076036,28.722507932222843,27.175332086335754,27.593399745075526,27.887637422253775,25.48007450093C28.710006450771193,23.040203366552724,25.145328789211963,20.72644416133915,25.623488675679845,18.196498491091432C26.073980767687495,15.812943220333384,30.886017584839113,15.089937200281788,30.296076676432097,12.737013789223152C29.698320845702114,10.35292130101242,25.038980765786814,11.934174262012812,23.560967792635033,9.970329391176634C22.015656690043286,7.91706508443678,24.98278407397545,3.213949043495301,22.53650031055454,2.426817246431778C19.870258711554076,1.568910419509976,18.617963764620885,6.541917240232925,16,7.537464383793505C14.547468838961507,8.089826210892365,13.040218486599763,6.678435700810148,11.487004536931604,6.628668358304594C9.271567851204846,6.557682389912095,6.377285009913617,5.492302961358944,4.94410331247205,7.183216601463338C3.5331882289124055,8.847859377797219,6.24958655743027,11.546502220941326,5.563124758567691,13.617851333118953C4.768612393203254,16.015235259418425,0.37833326376473064,16.975801046380525,0.8783202080203516,19.45142473433675C1.3709031650956693,21.89038849294988,5.1243752365073165,21.89100776389081,7.4252848144117145,22.838107177752498C8.938134622902659,23.460825767236365,10.531483788995615,23.649799252078633,12.111231553344247,24.075110885796033C13.426049781635395,24.429096187333396,14.762569175072384,24.57848648524931,16,25.14665681241374" fill="#7eec9a" strokewidth="0"/>
</g>
<g id="SVGRepo_tracerCarrier" stroke-linecap="round" stroke-linejoin="round"/>
<g id="SVGRepo_iconCarrier"> <defs> <style>.cls-1{fill:#00000;}</style> </defs> <g data-name="calendar check" id="calendar_check"> <path class="cls-1" d="M22.5,3H21V2a1,1,0,0,0-1-1H19a1,1,0,0,0-1,1V3H14V2a1,1,0,0,0-1-1H12a1,1,0,0,0-1,1V3H7V2A1,1,0,0,0,6,1H5A1,1,0,0,0,4,2V3H2.5A1.5,1.5,0,0,0,1,4.5v18A1.5,1.5,0,0,0,2.5,24h20A1.5,1.5,0,0,0,24,22.5V4.5A1.5,1.5,0,0,0,22.5,3ZM19,2l1,0,0,3L19,5ZM12,2l1,0V3.44s0,0,0,.06,0,0,0,.07L13,5,12,5ZM5,2,6,2,6,5,5,5ZM2.5,4H4V5A1,1,0,0,0,5,6H6A1,1,0,0,0,7,5V4h4V5a1,1,0,0,0,1,1H13a1,1,0,0,0,1-1V4h4V5a1,1,0,0,0,1,1H20a1,1,0,0,0,1-1V4h1.5a.5.5,0,0,1,.5.5V8H2V4.5A.5.5,0,0,1,2.5,4Zm20,19H2.5a.5.5,0,0,1-.5-.5V9H23V22.5A.5.5,0,0,1,22.5,23Z"/> <path class="cls-1" d="M16.75,12.07a.49.49,0,0,0-.68.18l-3.68,6.43L8.85,15.15a.49.49,0,0,0-.7.7l4,4a.47.47,0,0,0,.35.15h.07a.5.5,0,0,0,.36-.25l4-7A.49.49,0,0,0,16.75,12.07Z"/> </g> </g>
</svg>