<!DOCTYPE svg PUBLIC "-//W3C//DTD SVG 1.1//EN" "http://www.w3.org/Graphics/SVG/1.1/DTD/svg11.dtd">
<!-- Uploaded to: SVG Repo, www.svgrepo.com, Transformed by: SVG Repo Mixer Tools -->
<svg width="800px" height="800px" viewBox="-2.5 -2.5 30.00 30.00" xmlns="http://www.w3.org/2000/svg" fill="#000000">
<g id="SVGRepo_bgCarrier" stroke-width="0">
<path transform="translate(-2.5, -2.5), scale(0.9375)" d="M16,29.18013744801283C18.245659127357523,29.212108062727552,20.715277418064083,29.801658545473042,22.614652220217792,28.60316682775742C24.511858455964923,27.406043459708567,24.525049060824223,24.59692207713108,25.975559673025764,22.885631680039708C27.63241402787296,20.930900068303615,32.26420451557022,20.399982187227238,31.68315895976624,17.904280264084782C30.96738505235566,14.829894272459704,25.472709944282954,15.689553753403114,23.693177374905236,13.08236266977417C22.498042863365864,11.331372496375828,25.564869321021614,8.384917038313668,24.124205997505644,6.829667130329122C22.757155951168837,5.353885506634568,20.16861377205376,7.46946486504909,18.18481062135568,7.135874863243904C16.404674704921447,6.836532893065156,15.094038507728124,5.088320812583871,13.290700400379015,5.007939429962153C11.33095005167096,4.920586181017556,9.3960257599184,5.627354526046467,7.734395851124818,6.6700616112651065C5.932854492291813,7.800566020958508,3.569486155953618,9.099302560630571,3.3931542428842523,11.21885405666821C3.2014030645062275,13.523748785725218,6.900953270283229,14.796483200558146,6.865942658154934,17.10907535731267C6.822085454076828,20.006020597702808,2.5334588822178925,22.021626448675686,3.186877578355263,24.84425982687179C3.7391159729267187,27.22981526697985,7.1640238657349,27.631339631072667,9.483463484111123,28.416222972069768C11.585660962979496,29.12759298040178,13.780927340687533,29.148545334966563,16,29.18013744801283" fill="#f86363" strokewidth="0"/>
</g>
<g id="SVGRepo_tracerCarrier" stroke-linecap="round" stroke-linejoin="round"/>
<g id="SVGRepo_iconCarrier"> <defs> <style>.cls-1{fill:#00000;}</style> </defs> <g data-name="calendar minus" id="calendar_minus"> <path class="cls-1" d="M22.5,3H21V2a1,1,0,0,0-1-1H19a1,1,0,0,0-1,1V3H14V2a1,1,0,0,0-1-1H12a1,1,0,0,0-1,1V3H7V2A1,1,0,0,0,6,1H5A1,1,0,0,0,4,2V3H2.5A1.5,1.5,0,0,0,1,4.5v18A1.5,1.5,0,0,0,2.5,24h16A5.51,5.51,0,0,0,24,18.5s0-.08,0-.13,0,0,0,0V4.5A1.5,1.5,0,0,0,22.5,3ZM19,2l1,0,0,3L19,5ZM12,2l1,0V3.44s0,0,0,.06,0,0,0,.07L13,5,12,5ZM5,2,6,2,6,5,5,5ZM2.5,4H4V5A1,1,0,0,0,5,6H6A1,1,0,0,0,7,5V4h4V5a1,1,0,0,0,1,1H13a1,1,0,0,0,1-1V4h4V5a1,1,0,0,0,1,1H20a1,1,0,0,0,1-1V4h1.5a.5.5,0,0,1,.5.5V8H2V4.5A.5.5,0,0,1,2.5,4Zm16,19A4.5,4.5,0,1,1,23,18.5,4.51,4.51,0,0,1,18.5,23Zm0-10a5.49,5.49,0,0,0-3.15,10H2.5a.5.5,0,0,1-.5-.5V9H23v6.35A5.49,5.49,0,0,0,18.5,13Z"/> <path class="cls-1" d="M20.5,18h-4a.5.5,0,0,0,0,1h4a.5.5,0,0,0,0-1Z"/> </g> </g>
</svg>