<!DOCTYPE svg PUBLIC "-//W3C//DTD SVG 1.1//EN" "http://www.w3.org/Graphics/SVG/1.1/DTD/svg11.dtd">
<!-- Uploaded to: SVG Repo, www.svgrepo.com, Transformed by: SVG Repo Mixer Tools -->
<svg width="800px" height="800px" viewBox="-2.5 -2.5 30.00 30.00" xmlns="http://www.w3.org/2000/svg" fill="#000000">
<g id="SVGRepo_bgCarrier" stroke-width="0">
<path transform="translate(-2.5, -2.5), scale(0.9375)" d="M16,31.90170054291101C18.589540050475883,32.66528540612282,20.42502467336849,29.054944085998656,22.68142992038937,27.57257608932527C24.793904888429175,26.1847645290879,27.309637056763847,25.41614497826731,28.883065877294847,23.438041552243867C30.57640895458187,21.3091827828436,31.91954850610232,18.71999259305658,31.886522286735914,16C31.853604080063565,13.288903179254863,30.408187965091894,10.774033330795213,28.70369750567867,8.665516825392846C27.135945183056073,6.726150353508566,24.758486563419662,5.81680381536571,22.61893830634654,4.5356625612439085C20.443688276316074,3.233143423248846,18.533031287283023,0.9490212791113526,16.000000000000004,1.0586629483629686C13.466253469560836,1.1683355767479977,11.695475226335835,3.5245963938564144,9.703816678046307,5.094690592608401C7.9650980512576535,6.465383391094074,6.128475982588514,7.744624507494443,5.059458225746029,9.683475261554117C4.001226258498027,11.602764098934166,3.967615141761161,13.82583251573659,3.6909921344588774,15.999999999999998C3.377381539034894,18.464877979387367,1.6396722015934682,21.491984980352502,3.324703666065485,23.318085750455356C5.161529579921394,25.30868906354433,9.01984795075093,22.686709950352615,11.262572117149826,24.20546579028995C13.800155372127037,25.92389797449033,13.060441678859057,31.034904820582227,16,31.90170054291101" fill="#ec7ed4" strokewidth="0"/>
</g>
<g id="SVGRepo_tracerCarrier" stroke-linecap="round" stroke-linejoin="round"/>
<g id="SVGRepo_iconCarrier"> <defs> <style>.cls-1{fill:#00000;}</style> </defs> <g data-name="calendar date" id="calendar_date"> <path class="cls-1" d="M22.5,3H21V2a1,1,0,0,0-1-1H19a1,1,0,0,0-1,1V3H14V2a1,1,0,0,0-1-1H12a1,1,0,0,0-1,1V3H7V2A1,1,0,0,0,6,1H5A1,1,0,0,0,4,2V3H2.5A1.5,1.5,0,0,0,1,4.5v18A1.5,1.5,0,0,0,2.5,24h20A1.5,1.5,0,0,0,24,22.5V4.5A1.5,1.5,0,0,0,22.5,3ZM19,2l1,0,0,3L19,5ZM12,2l1,0V3.44s0,0,0,.06,0,0,0,.07L13,5,12,5ZM5,2,6,2,6,5,5,5ZM2.5,4H4V5A1,1,0,0,0,5,6H6A1,1,0,0,0,7,5V4h4V5a1,1,0,0,0,1,1H13a1,1,0,0,0,1-1V4h4V5a1,1,0,0,0,1,1H20a1,1,0,0,0,1-1V4h1.5a.5.5,0,0,1,.5.5V8H2V4.5A.5.5,0,0,1,2.5,4Zm20,19H2.5a.5.5,0,0,1-.5-.5V9H23V22.5A.5.5,0,0,1,22.5,23Z"/> <path class="cls-1" d="M20.5,15h-6a.5.5,0,0,0-.5.5v5a.5.5,0,0,0,.5.5h6a.5.5,0,0,0,.5-.5v-5A.5.5,0,0,0,20.5,15ZM20,20H15V16h5Z"/> <path class="cls-1" d="M6.5,11h-2a.5.5,0,0,0-.5.5v2a.5.5,0,0,0,.5.5h2a.5.5,0,0,0,.5-.5v-2A.5.5,0,0,0,6.5,11ZM6,13H5V12H6Z"/> <path class="cls-1" d="M10.5,11h-2a.5.5,0,0,0-.5.5v2a.5.5,0,0,0,.5.5h2a.5.5,0,0,0,.5-.5v-2A.5.5,0,0,0,10.5,11ZM10,13H9V12h1Z"/> <path class="cls-1" d="M6.5,16h-2a.5.5,0,0,0-.5.5v2a.5.5,0,0,0,.5.5h2a.5.5,0,0,0,.5-.5v-2A.5.5,0,0,0,6.5,16ZM6,18H5V17H6Z"/> <path class="cls-1" d="M10.5,16h-2a.5.5,0,0,0-.5.5v2a.5.5,0,0,0,.5.5h2a.5.5,0,0,0,.5-.5v-2A.5.5,0,0,0,10.5,16ZM10,18H9V17h1Z"/> <path class="cls-1" d="M14.5,14h2a.5.5,0,0,0,.5-.5v-2a.5.5,0,0,0-.5-.5h-2a.5.5,0,0,0-.5.5v2A.5.5,0,0,0,14.5,14Zm.5-2h1v1H15Z"/> <path class="cls-1" d="M20.5,11h-2a.5.5,0,0,0-.5.5v2a.5.5,0,0,0,.5.5h2a.5.5,0,0,0,.5-.5v-2A.5.5,0,0,0,20.5,11ZM20,13H19V12h1Z"/> </g> </g>
</svg>