<!DOCTYPE svg PUBLIC "-//W3C//DTD SVG 1.1//EN" "http://www.w3.org/Graphics/SVG/1.1/DTD/svg11.dtd">
<!-- Uploaded to: SVG Repo, www.svgrepo.com, Transformed by: SVG Repo Mixer Tools -->
<svg width="800px" height="800px" viewBox="-2.5 -2.5 30.00 30.00" xmlns="http://www.w3.org/2000/svg" fill="#000000">
<g id="SVGRepo_bgCarrier" stroke-width="0">
<path transform="translate(-2.5, -2.5), scale(0.9375)" d="M16,31.83564989162343C19.47342834574685,31.417121033413004,21.152548800172923,27.580231484409566,23.754940764450673,25.241978516389377C26.218303202629247,23.02864377994468,29.918453643619802,21.807720370683704,30.733188438507973,18.597858633570976C31.56743434433067,15.311127749798201,29.954973409970012,11.81364956926706,27.835134978470037,9.16698163428477C25.933260933228762,6.792447340954975,22.721740327103326,6.399927075979323,19.953170395002775,5.138753604473367C16.81561828224184,3.7094967725611125,14.060040833956949,0.7375916579072078,10.666404852211677,1.346067766938841C7.069218433567739,1.9910403000130132,4.061925032956762,4.911672218842519,2.582364661130333,8.253324625215352C1.1873641231041845,11.403994914547312,2.48353552509328,14.885860886550597,3.1770856434834815,18.26102577236778C3.8446923246383524,21.509936799880773,4.222901528988444,24.909903921897495,6.5005189373081596,27.321040684243656C8.98284342759915,29.94888494498292,12.411060098798469,32.26809725184463,16,31.83564989162343" fill="#7ed0ec" strokewidth="0"/>
</g>
<g id="SVGRepo_tracerCarrier" stroke-linecap="round" stroke-linejoin="round"/>
<g id="SVGRepo_iconCarrier"> <defs> <style>.cls-1{fill:#0a0a0a;}</style> </defs> <g data-name="calendar number" id="calendar_number"> <path class="cls-1" d="M22.5,3H21V2a1,1,0,0,0-1-1H19a1,1,0,0,0-1,1V3H14V2a1,1,0,0,0-1-1H12a1,1,0,0,0-1,1V3H7V2A1,1,0,0,0,6,1H5A1,1,0,0,0,4,2V3H2.5A1.5,1.5,0,0,0,1,4.5v18A1.5,1.5,0,0,0,2.5,24h20A1.5,1.5,0,0,0,24,22.5V4.5A1.5,1.5,0,0,0,22.5,3ZM19,2l1,0,0,3L19,5ZM12,2l1,0V3.44s0,0,0,.06,0,0,0,.07L13,5,12,5ZM5,2,6,2,6,5,5,5ZM2.5,4H4V5A1,1,0,0,0,5,6H6A1,1,0,0,0,7,5V4h4V5a1,1,0,0,0,1,1H13a1,1,0,0,0,1-1V4h4V5a1,1,0,0,0,1,1H20a1,1,0,0,0,1-1V4h1.5a.5.5,0,0,1,.5.5V8H2V4.5A.5.5,0,0,1,2.5,4Zm20,19H2.5a.5.5,0,0,1-.5-.5V9H23V22.5A.5.5,0,0,1,22.5,23Z"/> <path class="cls-1" d="M10.62,15.89a3.55,3.55,0,0,0-1.28-.27H9.16l2.14-2.38.09-.12a.29.29,0,0,0,0-.14v-.39a.26.26,0,0,0-.07-.2.25.25,0,0,0-.19-.07H6.73a.24.24,0,0,0-.18.07.26.26,0,0,0-.07.2V13a.25.25,0,0,0,.07.19.28.28,0,0,0,.18.06H10L7.85,15.6l-.08.13a.33.33,0,0,0,0,.17v.3a.27.27,0,0,0,.07.19.29.29,0,0,0,.19.07H9a2,2,0,0,1,1.2.31,1.17,1.17,0,0,1,.43,1,1.26,1.26,0,0,1-.48,1.07A1.93,1.93,0,0,1,9,19.24a3.53,3.53,0,0,1-.72-.08,1.53,1.53,0,0,1-.64-.31,1.15,1.15,0,0,1-.38-.62A.31.31,0,0,0,7.08,18,.27.27,0,0,0,6.9,18H6.36a.24.24,0,0,0-.17.06.22.22,0,0,0-.07.16,1.65,1.65,0,0,0,.2.7,1.91,1.91,0,0,0,.54.64,2.56,2.56,0,0,0,.87.46A3.79,3.79,0,0,0,9,20.18a3.55,3.55,0,0,0,1.46-.28,2.42,2.42,0,0,0,1-.8,2.12,2.12,0,0,0,.37-1.27,2.15,2.15,0,0,0-.31-1.21A1.85,1.85,0,0,0,10.62,15.89Z"/> <path class="cls-1" d="M18.47,14.05a2.73,2.73,0,0,0-.49-1,2.26,2.26,0,0,0-.86-.65,3.1,3.1,0,0,0-1.29-.24,3,3,0,0,0-1.28.24,2.26,2.26,0,0,0-.86.65,2.93,2.93,0,0,0-.5,1A4.76,4.76,0,0,0,13,15.2c0,.21,0,.43,0,.66s0,.45,0,.67,0,.44,0,.64a5.31,5.31,0,0,0,.17,1.15,2.69,2.69,0,0,0,.49,1,2.09,2.09,0,0,0,.86.65,3.1,3.1,0,0,0,1.29.24,3.11,3.11,0,0,0,1.3-.24,2.06,2.06,0,0,0,.85-.65,2.86,2.86,0,0,0,.49-1,4,4,0,0,0,.17-1.15c0-.2,0-.41,0-.64s0-.44,0-.67,0-.45,0-.66A4,4,0,0,0,18.47,14.05Zm-.91,2.43c0,.21,0,.42,0,.63a2.59,2.59,0,0,1-.43,1.55,1.49,1.49,0,0,1-1.28.57,1.48,1.48,0,0,1-1.27-.57,2.59,2.59,0,0,1-.44-1.55c0-.21,0-.42,0-.63v-.6c0-.21,0-.41,0-.61a2.68,2.68,0,0,1,.44-1.55,1.44,1.44,0,0,1,1.27-.58,1.47,1.47,0,0,1,1.28.58,2.68,2.68,0,0,1,.43,1.55c0,.2,0,.4,0,.61Z"/> </g> </g>
</svg>