<!DOCTYPE svg PUBLIC "-//W3C//DTD SVG 1.1//EN" "http://www.w3.org/Graphics/SVG/1.1/DTD/svg11.dtd">
<!-- Uploaded to: SVG Repo, www.svgrepo.com, Transformed by: SVG Repo Mixer Tools -->
<svg fill="#000000" width="64px" height="64px" viewBox="-192 -192 2304.00 2304.00" xmlns="http://www.w3.org/2000/svg">
<g id="SVGRepo_bgCarrier" stroke-width="0">
<path transform="translate(-192, -192), scale(72)" d="M16,25.874250984113466C18.721232284749853,26.617803201930876,20.52205827705763,30.401592563662245,23.299552718086147,29.908135698027788C25.730703406871463,29.476211161635625,26.21772194301508,26.033144179903925,27.37700871737437,23.852982109892952C28.43092754868177,21.8709756627336,30.310190053208522,19.863036483997043,29.80386102904258,17.67609218227083C29.263017562253843,15.34007255596587,25.422872536814204,14.979461785622938,24.787288356033894,12.66742110708983C24.04487394155985,9.966768103917245,27.92622772244804,6.69791665141728,26.183240631052307,4.505497484015258C24.605746672911902,2.521244125306553,21.182684118443486,4.475856424789119,18.70661408013279,5.018835010827583C16.94105199517977,5.4060059670679665,15.623527508862885,6.956878506492378,13.834321722379741,7.213497833112536C11.761373468273892,7.510813317505579,9.684374495265285,6.0166969805408,7.673460954949219,6.601280332026169C5.391396886950563,7.264688596195152,3.1808130051397665,8.639642596124915,1.9452176700594652,10.669724147035144C0.6688491190647692,12.766796039401875,-0.49047402692969744,15.773444193976143,0.832041578878016,17.84172359292541C2.3691601544989,20.24562012899483,6.47621490063262,19.208229689338456,8.613631242286257,21.09844223137634C10.046755441304555,22.365817839250006,8.924920166978024,25.38061712624141,10.531488965665226,26.419377250779192C12.092496014254387,27.42867848800093,14.206854613217022,25.384290153983855,16,25.874250984113466" fill="#7eec80" strokewidth="0"/>
</g>
<g id="SVGRepo_tracerCarrier" stroke-linecap="round" stroke-linejoin="round"/>
<g id="SVGRepo_iconCarrier"> <path d="M1581.176 1750.588c0 31.06-25.411 56.47-56.47 56.47H395.294c-31.059 0-56.47-25.41-56.47-56.47V564.706H225.882v1185.882c0 93.403 76.01 169.412 169.412 169.412h1129.412c93.402 0 169.412-76.01 169.412-169.412V564.706h-112.942v1185.882Zm-903.529-169.412h112.941V677.647h-112.94v903.53Zm451.765 0h112.94V677.647h-112.94v903.53Zm211.211-1242.352L1217.065 0H694.6L571.268 338.824H.01v112.94h1920v-112.94h-579.388Zm-649.299 0 82.334-225.883h364.462l82.334 225.883h-529.13Z" fill-rule="evenodd"/> </g>
</svg>