<!DOCTYPE svg PUBLIC "-//W3C//DTD SVG 1.1//EN" "http://www.w3.org/Graphics/SVG/1.1/DTD/svg11.dtd">
<!-- Uploaded to: SVG Repo, www.svgrepo.com, Transformed by: SVG Repo Mixer Tools -->
<svg width="800px" height="800px" viewBox="-2.5 -2.5 30.00 30.00" xmlns="http://www.w3.org/2000/svg" fill="#000000">
<g id="SVGRepo_bgCarrier" stroke-width="0">
<path transform="translate(-2.5, -2.5), scale(0.9375)" d="M16,28.43409532269365C17.76054903737841,27.413449094832213,17.697935713561492,24.06848949030347,19.69345173904875,23.66953156334204C22.693274364181693,23.069785432271605,26.353063905980605,28.153492779817764,28.46650091230862,25.94170273004434C30.468832899613794,23.846188194903636,25.841238524374468,20.853111898971513,25.04851120105418,18.065263634586795C24.66707702904569,16.72384324559732,24.81249364073216,15.307785804250521,25.052077098732738,13.933922472537732C25.45272890311331,11.636431537993735,27.441433394501335,9.559883802879897,26.92847479700123,7.28483216831949C26.445624005171208,5.143313362405629,24.363715894120638,3.670346483496858,22.482730974079004,2.538470424102732C20.53442691783454,1.3660853112891933,18.269617553801524,0.8472672044729815,16.000000000000004,0.7086608994163974C13.65829588894818,0.5656522441365447,10.620862623279027,-0.08415704287220582,9.12440158102876,1.7226727687672874C7.352472115379094,3.862103660896601,8.895113439777498,7.189199632934481,8.372922313560192,9.91760851012548C8.101154312425729,11.337575624854182,7.629933531046758,12.719218361382197,6.794009724355066,13.898792794284864C5.359873542704589,15.922506390707754,1.107605446512756,16.857127301327132,1.7590993827092447,19.25039263533527C2.427752915201359,21.706693808479002,7.389208991027163,19.612805121659633,8.90601778141017,21.65726204053034C10.509374895964664,23.818374612566387,7.499696405207572,27.751818123034568,9.445476365219125,29.61060857196156C11.070928358838051,31.16339187892411,14.055236223391386,29.561536689298716,16,28.43409532269365" fill="#7e86ec" strokewidth="0"/>
</g>
<g id="SVGRepo_tracerCarrier" stroke-linecap="round" stroke-linejoin="round"/>
<g id="SVGRepo_iconCarrier"> <defs> <style>.cls-1{fill:#00000;}</style> </defs> <g data-name="calendar star" id="calendar_star"> <path class="cls-1" d="M22.5,3H21V2a1,1,0,0,0-1-1H19a1,1,0,0,0-1,1V3H14V2a1,1,0,0,0-1-1H12a1,1,0,0,0-1,1V3H7V2A1,1,0,0,0,6,1H5A1,1,0,0,0,4,2V3H2.5A1.5,1.5,0,0,0,1,4.5v18A1.5,1.5,0,0,0,2.5,24h20A1.5,1.5,0,0,0,24,22.5V4.5A1.5,1.5,0,0,0,22.5,3ZM19,2l1,0,0,3L19,5ZM12,2l1,0V3.44s0,0,0,.06,0,0,0,.07L13,5,12,5ZM5,2,6,2,6,5,5,5ZM2.5,4H4V5A1,1,0,0,0,5,6H6A1,1,0,0,0,7,5V4h4V5a1,1,0,0,0,1,1H13a1,1,0,0,0,1-1V4h4V5a1,1,0,0,0,1,1H20a1,1,0,0,0,1-1V4h1.5a.5.5,0,0,1,.5.5V8H2V4.5A.5.5,0,0,1,2.5,4Zm20,19H2.5a.5.5,0,0,1-.5-.5V9H23V22.5A.5.5,0,0,1,22.5,23Z"/> <path class="cls-1" d="M18.3,14.14l-3.7-.54-1.66-3.34a.5.5,0,0,0-.45-.28h0a.51.51,0,0,0-.45.28L10.4,13.61l-3.7.54a.5.5,0,0,0-.4.34.53.53,0,0,0,.12.52l2.68,2.6-.62,3.68a.49.49,0,0,0,.2.49.51.51,0,0,0,.29.1.46.46,0,0,0,.23-.06l3.31-1.74,3.31,1.73a.5.5,0,0,0,.72-.53l-.63-3.68L18.58,15a.5.5,0,0,0,.12-.51A.47.47,0,0,0,18.3,14.14ZM15,17.07a.48.48,0,0,0-.14.44l.5,2.94-2.64-1.38a.49.49,0,0,0-.47,0L9.63,20.46l.5-2.94a.48.48,0,0,0-.14-.44L7.85,15l3-.44a.51.51,0,0,0,.38-.27l1.32-2.68,1.32,2.67a.52.52,0,0,0,.38.28l2.95.42Z"/> </g> </g>
</svg>