<!DOCTYPE svg PUBLIC "-//W3C//DTD SVG 1.1//EN" "http://www.w3.org/Graphics/SVG/1.1/DTD/svg11.dtd">
<!-- Uploaded to: SVG Repo, www.svgrepo.com, Transformed by: SVG Repo Mixer Tools -->
<svg width="800px" height="800px" viewBox="-2.5 -2.5 30.00 30.00" xmlns="http://www.w3.org/2000/svg" fill="#000000">
<g id="SVGRepo_bgCarrier" stroke-width="0">
<path transform="translate(-2.5, -2.5), scale(0.9375)" d="M16,26.718299984931946C19.383667726403036,26.574553279490868,22.48756814579609,25.45505483393785,24.977271728379087,23.159135308148667C28.197378009460163,20.189663384836294,32.59965684754736,16.70017675296685,31.44596477808118,12.47455933374287C30.301069776175815,8.281162853629837,24.68781999863999,7.791008779452119,20.481771144118966,6.693506324696488C17.54008473973111,5.925919413178173,14.673428054877668,6.260496909044776,11.838358358308145,7.358262086160435C8.563152882588035,8.626451902973248,4.86097209045711,9.87808457342432,3.698306739223142,13.192218789278394C2.4191304369256272,16.83846312523847,3.4125521366108824,21.106147685965098,6.0124457174133,23.96480876038138C8.457034046090996,26.652707045820616,12.369982387627502,26.872512252407258,16,26.718299984931946" fill="#fba732" strokewidth="0"/>
</g>
<g id="SVGRepo_tracerCarrier" stroke-linecap="round" stroke-linejoin="round"/>
<g id="SVGRepo_iconCarrier"> <defs> <style>.cls-1{fill:#00000;}</style> </defs> <g data-name="calendar add" id="calendar_add"> <path class="cls-1" d="M22.5,3H21V2a1,1,0,0,0-1-1H19a1,1,0,0,0-1,1V3H14V2a1,1,0,0,0-1-1H12a1,1,0,0,0-1,1V3H7V2A1,1,0,0,0,6,1H5A1,1,0,0,0,4,2V3H2.5A1.5,1.5,0,0,0,1,4.5v18A1.5,1.5,0,0,0,2.5,24h20A1.5,1.5,0,0,0,24,22.5V4.5A1.5,1.5,0,0,0,22.5,3ZM19,2l1,0,0,3L19,5ZM12,2l1,0V3.44s0,0,0,.06,0,0,0,.07L13,5,12,5ZM5,2,6,2,6,5,5,5ZM2.5,4H4V5A1,1,0,0,0,5,6H6A1,1,0,0,0,7,5V4h4V5a1,1,0,0,0,1,1H13a1,1,0,0,0,1-1V4h4V5a1,1,0,0,0,1,1H20a1,1,0,0,0,1-1V4h1.5a.5.5,0,0,1,.5.5V8H2V4.5A.5.5,0,0,1,2.5,4Zm20,19H2.5a.5.5,0,0,1-.5-.5V9H23V22.5A.5.5,0,0,1,22.5,23Z"/> <path class="cls-1" d="M16,15.5H13v-3a.5.5,0,0,0-1,0v3H9a.5.5,0,0,0,0,1h3v3a.5.5,0,0,0,1,0v-3h3a.5.5,0,0,0,0-1Z"/> </g> </g>
</svg>